HIERARCHY
ROOT Hips
{
  OFFSET 0.000940514 47.6841 -0.128968
  CHANNELS 6 Xposition Yposition Zposition Zrotation Xrotation Yrotation
  JOINT RightHipJoint
  {
    OFFSET 0 0 0
    CHANNELS 3 Zrotation Xrotation Yrotation
    JOINT RightUpLeg
    {
      OFFSET -6.08134 -3.88629 0.128968
      CHANNELS 3 Zrotation Xrotation Yrotation
      JOINT RightLeg
      {
        OFFSET -0.557283 -16.0178 0.0584079
        CHANNELS 3 Zrotation Xrotation Yrotation
        JOINT RightFoot
        {
          OFFSET -0.113211 -17.963 0.310197
          CHANNELS 3 Zrotation Xrotation Yrotation
          JOINT RightToeBase
          {
            OFFSET -0.663182 -7.38523 8.38825
            CHANNELS 3 Zrotation Xrotation Yrotation
            End Site
            {
              OFFSET -0.406279 0.043209 5.537
            }
          }
        }
      }
    }
  }
  JOINT LeftHipJoint
  {
    OFFSET 0 0 0
    CHANNELS 3 Zrotation Xrotation Yrotation
    JOINT LeftUpLeg
    {
      OFFSET 6.08134 -3.88629 0.128968
      CHANNELS 3 Zrotation Xrotation Yrotation
      JOINT LeftLeg
      {
        OFFSET 0.557283 -16.0178 0.0584079
        CHANNELS 3 Zrotation Xrotation Yrotation
        JOINT LeftFoot
        {
          OFFSET 0.113211 -17.963 0.310197
          CHANNELS 3 Zrotation Xrotation Yrotation
          JOINT LeftToeBase
          {
            OFFSET 0.663182 -7.38523 8.38825
            CHANNELS 3 Zrotation Xrotation Yrotation
            End Site
            {
              OFFSET 0.406279 0.043209 5.537
            }
          }
        }
      }
    }
  }
  JOINT LowerBack
  {
    OFFSET 0 0 0
    CHANNELS 3 Zrotation Xrotation Yrotation
    JOINT Spine
    {
      OFFSET 0 5.04431 -0.164042
      CHANNELS 3 Zrotation Xrotation Yrotation
      JOINT Spine1
      {
        OFFSET 0 6.7752 -0.262859
        CHANNELS 3 Zrotation Xrotation Yrotation
        JOINT Spine2
        {
          OFFSET 0 7.06988 -0.278313
          CHANNELS 3 Zrotation Xrotation Yrotation
          JOINT RightShoulder
          {
            OFFSET -3.78479 6.42979 -0.288036
            CHANNELS 3 Zrotation Xrotation Yrotation
            JOINT RightArm
            {
              OFFSET -6.31165 -2.71771 0.0219277
              CHANNELS 3 Zrotation Xrotation Yrotation
              JOINT RightForeArm
              {
                OFFSET -11.5936 -0.943246 -0.40631
                CHANNELS 3 Zrotation Xrotation Yrotation
                JOINT RightHand
                {
                  OFFSET -17.7496 -0.164851 0.501108
                  CHANNELS 3 Zrotation Xrotation Yrotation
                  End Site
                  {
                    OFFSET -8.18929 -0.905915 0.215009
                  }
                }
              }
            }
          }
          JOINT LeftShoulder
          {
            OFFSET 3.78479 6.42979 -0.288036
            CHANNELS 3 Zrotation Xrotation Yrotation
            JOINT LeftArm
            {
              OFFSET 6.31165 -2.71771 0.0219277
              CHANNELS 3 Zrotation Xrotation Yrotation
              JOINT LeftForeArm
              {
                OFFSET 11.5936 -0.943246 -0.40631
                CHANNELS 3 Zrotation Xrotation Yrotation
                JOINT LeftHand
                {
                  OFFSET 17.7496 -0.164851 0.501108
                  CHANNELS 3 Zrotation Xrotation Yrotation
                  End Site
                  {
                    OFFSET 8.18929 -0.905915 0.215009
                  }
                }
              }
            }
          }
          JOINT Neck
          {
            OFFSET 0 10.3326 -0.261975
            CHANNELS 3 Zrotation Xrotation Yrotation
            JOINT Head
            {
              OFFSET 0 12.4977 0.713112
              CHANNELS 3 Zrotation Xrotation Yrotation
              End Site
              {
                OFFSET 0 26.9967 0
              }
            }
          }
        }
      }
    }
  }
}
MOTION
Frames:	5
Frame Time:	0.0333333
-20.7595 41.4175 64.4169 -9.82086 -2.49313 51.1491 -1.98785e-15 2.18663e-15 -1.27222e-14 -13.9624 -8.29893 -50.4708 -13.9208 60.9044 9.92007 -48.2453 -1.47757 40.4377 5.93833 -3.61142 -33.5728 -1.98785e-15 2.18663e-15 -1.27222e-14 -24.5998 -34.2517 25.0301 8.43707 46.7736 -2.55172 62.7036 -7.896 -22.6261 -5.41634 -10.5444 21.9258 -1.98785e-15 2.18663e-15 -1.27222e-14 -0.176941 0.787487 1.03162 -0.368062 1.57165 2.06597 -0.368063 1.57165 2.06598 -14.7109 0.464595 -45.0748 67.9096 37.465 12.0154 -15.199 1.97865 82.6336 -21.5051 13.4554 32.1142 -0.728685 13.8165 35.4163 -49.2985 52.7035 0.830924 -12.8259 -3.19704 -103.105 12.2471 10.4738 -12.3579 -7.02328 -17.534 -5.72786 0.444307 -2.35926 -8.57945 
-19.7181 41.2932 65.6295 -9.68214 -1.89698 55.0178 -8.82781e-32 3.97569e-16 1.27222e-14 -15.7852 -10.96 -50.8854 -17.2055 64.1323 11.1191 -58.4252 -4.55202 53.6733 10.113 2.94266 -31.1773 -8.82781e-32 3.97569e-16 1.27222e-14 -25.7242 -31.9588 24.0858 8.12678 47.6741 -1.7298 64.3703 -8.67062 -23.2363 -4.82893 -11.5293 23.0886 -8.82781e-32 3.97569e-16 1.27222e-14 -0.392892 0.866348 1.19931 -0.803991 1.72428 2.40495 -0.803987 1.72428 2.40495 -14.4972 0.772088 -46.1503 67.6462 36.7219 10.5868 -16.2457 2.34374 82.01 -22.2564 14.0424 32.7709 -2.41206 15.5468 35.7132 -54.3428 46.6267 5.13381 -11.0122 -3.58517 -103.59 15.5281 13.0723 -11.5848 -7.23428 -17.6706 -6.09519 -0.545041 -3.20808 -8.6396 
-18.8311 40.8259 66.6443 -9.50194 -1.29209 59.1434 1.98785e-15 1.98785e-15 6.36111e-15 -16.0984 -14.8884 -49.8683 -24.5148 65.9057 10.8546 -68.5915 -5.42189 56.6923 9.90168 6.26126 -34.3032 1.98785e-15 1.98785e-15 6.36111e-15 -26.8134 -30.9785 23.3906 9.24098 50.8322 -1.79459 65.7823 -10.5038 -23.1898 -4.34788 -12.3807 24.0943 1.98785e-15 1.98785e-15 6.36111e-15 -0.567649 1.05823 1.29392 -1.15936 2.10331 2.59896 -1.15936 2.10331 2.59896 -13.7678 0.699468 -46.5723 67.3767 34.8833 9.22269 -15.8611 3.45644 78.4596 -22.0159 13.9716 32.7473 -3.14527 16.2047 34.5413 -59.9099 40.0731 6.29155 -9.36137 -3.13858 -102.786 16.5772 13.5244 -10.5602 -7.05847 -17.5147 -5.3734 -0.998136 -3.90449 -7.66085 
-17.9717 40.3084 67.5452 -9.80893 -0.552608 63.1262 -9.93923e-17 -5.56597e-15 -0 -16.1962 -21.0608 -46.6621 -33.8865 67.4711 12.8189 -75.245 -2.70657 51.2391 7.98426 6.53954 -35.9243 -9.93923e-17 -5.56597e-15 -0 -27.4725 -30.7059 22.2487 11.3377 54.9729 -3.16589 65.6743 -13.5744 -22.5718 -4.10665 -13.3464 24.3077 -9.93923e-17 -5.56597e-15 -0 -0.805275 1.13592 1.31519 -1.6369 2.25294 2.64699 -1.6369 2.25294 2.64699 -13.0939 0.522394 -46.5764 68.0028 33.312 7.60142 -15.0938 5.29398 72.24 -19.7973 13.123 31.0791 -2.81015 15.3474 32.8111 -63.046 37.0375 4.27313 -8.88347 -2.27275 -101.382 16.6156 12.641 -10.2056 -6.63996 -17.0734 -3.74612 -0.427744 -3.98393 -6.19208 
-17.0447 39.8587 68.4756 -10.4386 0.0484774 66.7051 -6.64686e-16 7.14382e-17 -0 -16.4069 -29.3915 -42.8178 -44.3144 68.1102 18.6933 -77.0237 5.06631 42.8369 6.1704 4.32074 -31.2191 -6.64686e-16 7.14382e-17 -0 -26.8449 -30.2246 21.6802 12.5756 58.947 -4.36107 65.1908 -16.864 -21.6163 -3.80952 -14.2965 24.2126 -6.64686e-16 7.14382e-17 -0 -1.06208 1.12182 1.24478 -2.14892 2.22011 2.51101 -2.14891 2.2201 2.51097 -12.6034 0.404933 -46.0412 69.2702 32.6081 5.81192 -14.1369 7.43553 64.507 -16.0048 11.5895 27.9705 -1.54887 12.973 31.0943 -63.5363 38.2111 -0.438524 -8.74717 -1.36263 -99.7333 15.1077 10.4509 -9.74525 -6.1637 -16.4154 -2.2483 0.376261 -3.93452 -5.10333 
